<svg id="Group_5" data-name="Group 5" xmlns="http://www.w3.org/2000/svg" width="18" height="18" viewBox="0 0 18 18">
  <path id="Path_9" data-name="Path 9" d="M0,0H18V18H0Z" fill="none"/>
  <path id="Ellipse_2" data-name="Ellipse 2" d="M1.5-.75A2.25,2.25,0,1,1-.75,1.5,2.253,2.253,0,0,1,1.5-.75Zm0,3A.75.75,0,1,0,.75,1.5.751.751,0,0,0,1.5,2.25Z" transform="translate(3 12.75)" fill="#fff"/>
  <path id="Ellipse_3" data-name="Ellipse 3" d="M1.5-.75A2.25,2.25,0,1,1-.75,1.5,2.253,2.253,0,0,1,1.5-.75Zm0,3A.75.75,0,1,0,.75,1.5.751.751,0,0,0,1.5,2.25Z" transform="translate(11.25 12.75)" fill="#fff"/>
  <path id="Path_10" data-name="Path 10" d="M13.75,14.25H5.5a.75.75,0,0,1-.75-.75V3.75H4a.75.75,0,0,1,0-1.5H5.5A.75.75,0,0,1,6.25,3v9.75h7.5a.75.75,0,0,1,0,1.5Z" transform="translate(-1 -0.75)" fill="#fff"/>
  <path id="Path_11" data-name="Path 11" d="M15.75,11.75H6a.75.75,0,0,1,0-1.5h9.1l.544-3.809-9.7-.693a.75.75,0,0,1,.107-1.5l10.5.75a.75.75,0,0,1,.689.854l-.75,5.25A.75.75,0,0,1,15.75,11.75Z" transform="translate(-1.5 -1.25)" fill="#fff"/>
</svg>
