<svg xmlns="http://www.w3.org/2000/svg" width="23" height="23" viewBox="0 0 23 23">
  <path id="Icon_ionic-ios-checkmark-circle" data-name="Icon ionic-ios-checkmark-circle" d="M14.875,3.375a11.5,11.5,0,1,0,11.5,11.5A11.5,11.5,0,0,0,14.875,3.375ZM20.763,11.7l-7.392,7.425h-.006a1,1,0,0,1-.641.3.968.968,0,0,1-.647-.315l-3.1-3.1a.22.22,0,0,1,0-.315l.984-.984a.214.214,0,0,1,.31,0l2.455,2.455,6.745-6.795a.218.218,0,0,1,.155-.066h0a.2.2,0,0,1,.155.066l.968,1A.218.218,0,0,1,20.763,11.7Z" transform="translate(-3.375 -3.375)" fill="#00b4ff"/>
</svg>
