<svg xmlns="http://www.w3.org/2000/svg" width="18" height="18" viewBox="0 0 18 18">
  <path id="Icon_ionic-ios-checkmark-circle" data-name="Icon ionic-ios-checkmark-circle" d="M12.375,3.375a9,9,0,1,0,9,9A9,9,0,0,0,12.375,3.375Zm4.608,6.512L11.2,15.7h0a.781.781,0,0,1-.5.238.758.758,0,0,1-.506-.247L7.762,13.266a.172.172,0,0,1,0-.247l.77-.77a.167.167,0,0,1,.242,0L10.7,14.171l5.279-5.318A.171.171,0,0,1,16.1,8.8h0a.157.157,0,0,1,.121.052l.757.783A.171.171,0,0,1,16.983,9.887Z" transform="translate(-3.375 -3.375)" fill="#11ca00"/>
</svg>
