<svg id="Group_3" data-name="Group 3" xmlns="http://www.w3.org/2000/svg" width="18" height="18" viewBox="0 0 18 18">
  <path id="Path_3" data-name="Path 3" d="M0,0H18V18H0Z" fill="none"/>
  <path id="Ellipse_1" data-name="Ellipse 1" d="M6.75-.75a7.5,7.5,0,1,1-7.5,7.5A7.508,7.508,0,0,1,6.75-.75Zm0,13.5a6,6,0,1,0-6-6A6.007,6.007,0,0,0,6.75,12.75Z" transform="translate(2.25 2.25)" fill="#fff"/>
  <path id="Line_1" data-name="Line 1" d="M12.6.75H0A.75.75,0,0,1-.75,0,.75.75,0,0,1,0-.75H12.6a.75.75,0,0,1,.75.75A.75.75,0,0,1,12.6.75Z" transform="translate(2.7 6.75)" fill="#fff"/>
  <path id="Line_2" data-name="Line 2" d="M12.6.75H0A.75.75,0,0,1-.75,0,.75.75,0,0,1,0-.75H12.6a.75.75,0,0,1,.75.75A.75.75,0,0,1,12.6.75Z" transform="translate(2.7 11.25)" fill="#fff"/>
  <path id="Path_4" data-name="Path 4" d="M10.856,17.25a.749.749,0,0,1-.637-.353,13.5,13.5,0,0,1,0-14.294.75.75,0,0,1,1.273.794,12.075,12.075,0,0,0,0,12.706.75.75,0,0,1-.636,1.147Z" transform="translate(-2.231 -0.75)" fill="#fff"/>
  <path id="Path_5" data-name="Path 5" d="M12.5,17.25a.75.75,0,0,1-.636-1.147,12.075,12.075,0,0,0,0-12.706A.75.75,0,0,1,13.136,2.6a13.5,13.5,0,0,1,0,14.294A.75.75,0,0,1,12.5,17.25Z" transform="translate(-3.125 -0.75)" fill="#fff"/>
</svg>
