<svg xmlns="http://www.w3.org/2000/svg" width="98.623" height="30" viewBox="0 0 98.623 30">
  <g id="Group_363" data-name="Group 363" transform="translate(-1907.596 -585)">
    <path id="Path_1131" data-name="Path 1131" d="M1925.691,599.893V596.96a.33.33,0,0,0-.33-.33H1907.6v18.04a.33.33,0,0,0,.33.33h4.448a.33.33,0,0,0,.33-.33v-7.2h8.934a.33.33,0,0,0,.33-.33v-2.933a.33.33,0,0,0-.33-.33H1912.7v-3.658h12.657A.33.33,0,0,0,1925.691,599.893Z" fill="#11ca00"/>
    <path id="Path_1132" data-name="Path 1132" d="M1945.311,599.292l-.59-4.507-5.067.631-3.448,3.983-3.993-4.507-4.639.112.066,4.954,4.079,4.624-4.583,5.29.723,4.588,4.9-.722,3.489-4.019,4.049,4.593,4.548.011.04-5.112-4.135-4.67Zm-9.873,9.506-3.271,3.734-2.986.4,4.807-5.773,2.1-2.529.4,2.981Zm3.8-4.338.789.9,3.515,4.034v3.006l-4.955-5.382-2.36-2.563h-3.006l-.7-.8-3.606-4.13v-3.007l5.04,5.474,2.274,2.467-.539-2.818,1.241-1.414,3.077-3.505,2.986-.4-4.608,5.544-2.157,2.6Z" fill="#11ca00"/>
    <path id="Path_1133" data-name="Path 1133" d="M1949.381,596.321h4.156v8.994l3.409,4.286,3.182-4.188v-9.091h4.188V607l-5.877,7.727h-2.857l-6.2-8.279Z" fill="#00b4ff"/>
    <path id="Path_1134" data-name="Path 1134" d="M1981.427,596.024h-11.039v18.441h3.993v-7.143h6.559l4.643-3.571v-4.318Zm.114,6.168-1.575,1.543h-5.033l-.487-.536v-3.555l.487-.439h4.919l1.689,1.526Z" fill="#00b4ff"/>
    <g id="Group_361" data-name="Group 361">
      <path id="Path_1135" data-name="Path 1135" d="M1995.37,608.879c.373,1.417,1.531,2.213,3.368,2.213,1.819,0,2.482-.653,2.482-1.73,0-1.143-.765-1.591-3.314-2.216-5.8-1.429-6.744-3.223-6.744-5.734,0-2.614,1.848-5.388,7.215-5.388,5.4,0,7.223,2.946,7.377,5.356h-4.684c-.158-.656-.6-1.9-2.913-1.9-1.629,0-2.156.721-2.156,1.521,0,.886.553,1.313,3.442,1.987,5.936,1.38,6.776,3.415,6.776,6.023,0,2.947-2.242,5.628-7.666,5.628-5.4,0-7.631-2.607-8.022-5.761Z" fill="#00b4ff"/>
    </g>
    <g id="Group_362" data-name="Group 362">
      <path id="Path_1136" data-name="Path 1136" d="M1986.721,585h2.541c1.553,0,2.805.562,2.805,2.3,0,1.686-1.286,2.429-2.805,2.429h-.92v2.43h-1.621Zm2.447,3.446c.888,0,1.31-.4,1.31-1.143s-.457-1.016-1.31-1.016h-.826v2.159Z"/>
      <path id="Path_1137" data-name="Path 1137" d="M1993.764,586.709h1.329l.127,1.193h.038a2.534,2.534,0,0,1,2.211-1.324,2.253,2.253,0,0,1,1.046.219l-.327,1.36a2.836,2.836,0,0,0-.965-.16,2.025,2.025,0,0,0-1.841,1.329v2.836h-1.618Z"/>
      <path id="Path_1138" data-name="Path 1138" d="M1999.606,589.439a2.781,2.781,0,1,1,2.78,2.855A2.735,2.735,0,0,1,1999.606,589.439Zm3.9,0c0-.946-.38-1.556-1.124-1.556s-1.125.61-1.125,1.556.38,1.549,1.125,1.549S2003.51,590.381,2003.51,589.439Z"/>
    </g>
  </g>
</svg>
